<?xml version="1.0" encoding="utf-8"?>
<!-- Generator: Adobe Illustrator 19.1.1, SVG Export Plug-In . SVG Version: 6.00 Build 0)  -->
<svg version="1.1" id="Layer_1" xmlns="http://www.w3.org/2000/svg" xmlns:xlink="http://www.w3.org/1999/xlink" x="0px" y="0px"
	 viewBox="20 -220 1000 1000" style="enable-background:new 20 -220 1000 1000;" xml:space="preserve">
<style type="text/css">
	.st0{fill:#BBDEFB;}
	.st1{fill:#356FEC;}
</style>
<g>
	<polygon class="st0" points="464,556.7 300.8,651 137.6,556.7 137.6,368.3 300.8,274.1 464,368.3 	"/>
	<polygon class="st1" points="819,556.7 655.8,651 492.6,556.7 492.6,368.3 655.8,274.1 819,368.3 	"/>
	<polygon class="st1" points="638.1,248.6 474.9,342.8 311.8,248.6 311.8,60.2 474.9,-34 638.1,60.2 	"/>
	<polygon class="st0" points="956.3,220.2 836.7,289.3 717,220.2 717,82 836.7,12.9 956.3,82 	"/>
	<polygon class="st1" points="779,-45.3 692.6,4.6 606.3,-45.3 606.3,-145 692.6,-194.8 779,-145 	"/>
	<polygon class="st0" points="243.1,222.7 156.8,272.5 70.4,222.7 70.4,123 156.8,73.1 243.1,123 	"/>
	<polygon class="st1" points="544.8,718.4 481.6,754.8 418.5,718.4 418.5,645.5 481.6,609 544.8,645.5 	"/>
	<polygon class="st1" points="980.2,399.5 947.2,418.6 914.2,399.5 914.2,361.4 947.2,342.4 980.2,361.4 	"/>
	<polygon class="st0" points="327.7,-12.4 277.3,16.7 227,-12.4 227,-70.6 277.3,-99.7 327.7,-70.6 	"/>
	<polygon class="st1" points="911.4,-73.8 880.2,-55.8 849,-73.8 849,-109.8 880.2,-127.7 911.4,-109.8 	"/>
</g>
</svg>
