<?xml version="1.0" encoding="iso-8859-1"?>
<!-- Generator: Adobe Illustrator 19.0.0, SVG Export Plug-In . SVG Version: 6.00 Build 0)  -->
<svg version="1.1" id="Capa_1" xmlns="http://www.w3.org/2000/svg" xmlns:xlink="http://www.w3.org/1999/xlink" x="0px" y="0px"
	 viewBox="0 0 539.077 539.077" style="enable-background:new 0 0 539.077 539.077;" xml:space="preserve">
<g>
	<g>
		<path d="M404.308,426.769h-22.462c-6.208,0-11.231-5.023-11.231-11.231c0-6.208,5.023-11.231,11.231-11.231h22.462
			c30.972,0,56.154-25.181,56.154-56.154S435.28,292,404.308,292h-22.462c-6.208,0-11.231-5.023-11.231-11.231
			s5.023-11.231,11.231-11.231h22.462c43.344,0,78.615,35.272,78.615,78.615S447.652,426.769,404.308,426.769z"/>
		<path d="M336.923,539.077H134.77c-30.961,0-56.154-25.181-56.154-56.154V235.846c0-6.208,5.023-11.231,11.231-11.231h218.013
			l50.78-91.228c-4.212-4.19-7.524-9.037-9.761-14.389c-4.76-11.34-4.475-24.469,0.79-36.961
			c2.764-6.559,7.348-12.338,12.174-18.436c12.657-15.98,19.807-26.684,7.94-44.77c-2.523-3.85-2.457-8.862,0.197-12.635
			c2.676-3.762,7.326-5.55,11.823-4.442c32.508,7.864,55.518,30.775,63.129,62.866c6.844,28.932-0.768,58.72-18.974,74.119
			c-6.427,5.451-13.775,8.796-21.672,10.013l-28.647,75.863h6.208c6.208,0,11.231,5.023,11.231,11.231v247.077
			C393.077,513.895,367.896,539.077,336.923,539.077z M101.077,247.077v235.846c0,18.579,15.113,33.692,33.692,33.692h202.154
			c18.579,0,33.692-15.113,33.692-33.692V247.077h-10.968c-0.175,0-0.351,0-0.526,0h-44.44c-0.219-0.022-0.307-0.011-0.461,0
			H101.077z M333.567,224.615h18.053l29.459-78.001c-1.141-0.362-2.281-0.768-3.422-1.206L333.567,224.615z M380.136,121.806
			c1.272,0.757,2.654,1.437,4.102,2.051c10.88,4.562,20.049,3.784,27.221-2.259c11.516-9.761,16.407-31.543,11.604-51.8
			c-3.685-15.596-12.371-28.241-24.765-36.697c1.272,19.051-10.309,33.681-18.842,44.441c-3.861,4.881-7.524,9.476-9.081,13.216
			c-2.939,6.986-3.224,13.753-0.79,19.566c1.667,3.981,4.541,7.425,8.467,10.156c0.154,0.077,0.329,0.165,0.483,0.252
			C379.105,121.049,379.631,121.411,380.136,121.806z"/>
		<path d="M179.693,247.077h-67.385c-4.255,0-8.138-2.402-10.046-6.208L68.657,173.66c-0.592-1.13-0.976-2.336-1.152-3.564
			l-11.198-67.176c-0.724-4.321,1.141-8.664,4.76-11.121c3.597-2.501,8.302-2.632,12.097-0.351l55.935,33.561
			c1.261,0.724,2.413,1.7,3.345,2.917c0.011,0.011,0.011,0.022,0.022,0.033c0.011,0-0.022,0,0.033,0.033
			c0.011,0-0.011,0,0.022,0.033c0,0,0,0,0,0.011l0,0c0.011,0,0.011,0.011,0.022,0.022c0,0,0,0,0.011,0.011c0,0,0,0.011,0.011,0.022
			l0.011,0.011c0,0.011,0.011,0.011,0.011,0.011c0.329,0.45,0.614,0.899,0.866,1.371l56.055,100.912
			c1.93,3.477,1.886,7.721-0.132,11.143C187.359,244.971,183.674,247.077,179.693,247.077z M119.25,224.615h41.359l-40.635-73.132
			l-27.123,20.334L119.25,224.615z M82.465,123.22l4.19,25.171l16.78-12.58L82.465,123.22z"/>
		<path d="M292,247.077h-89.846c-6.208,0-11.231-5.023-11.231-11.231V11.231C190.923,5.023,195.947,0,202.154,0H292
			c6.208,0,11.231,5.023,11.231,11.231v224.615C303.231,242.054,298.208,247.077,292,247.077z M213.385,224.615h67.385v-22.462
			h-11.231c-6.208,0-11.231-5.023-11.231-11.231c0-6.208,5.023-11.231,11.231-11.231h11.231v-22.462h-33.692
			c-6.208,0-11.231-5.023-11.231-11.231s5.023-11.231,11.231-11.231h33.692v-22.462h-11.231c-6.208,0-11.231-5.023-11.231-11.231
			c0-6.208,5.023-11.231,11.231-11.231h11.231V67.385h-33.692c-6.208,0-11.231-5.023-11.231-11.231s5.023-11.231,11.231-11.231
			h33.692V22.462h-67.385V224.615z"/>
	</g>
</g>
<g>
</g>
<g>
</g>
<g>
</g>
<g>
</g>
<g>
</g>
<g>
</g>
<g>
</g>
<g>
</g>
<g>
</g>
<g>
</g>
<g>
</g>
<g>
</g>
<g>
</g>
<g>
</g>
<g>
</g>
</svg>
