<?xml version="1.0" encoding="iso-8859-1"?>
<!-- Generator: Adobe Illustrator 18.1.1, SVG Export Plug-In . SVG Version: 6.00 Build 0)  -->
<svg version="1.1" id="Capa_1" xmlns="http://www.w3.org/2000/svg" xmlns:xlink="http://www.w3.org/1999/xlink" x="0px" y="0px"
	 viewBox="0 0 402.118 402.118" style="enable-background:new 0 0 402.118 402.118;" xml:space="preserve">
<g>
	<g id="Layer_5_83_">
		<g>
			<path d="M372.958,120.18c-0.219-1.4-1.725-2.728-3.027-3.583c-1.081-0.71-2.016-1.375-3.375-1.375
				c-1.934,0-3.401,1.132-4.575,2.452c0,0-22.758,25.742-30.722,34.562c-0.891,0.986-2.384,0.597-2.384,0.597l-36.204-16.558
				c-1.363-0.624-2.912-0.953-4.479-0.953c-3.237,0-6.239,1.344-8.032,3.594l-24.909,31.297c-0.012,0.004-0.466,0.93-1.699,0.93
				h-25.286c-3.39,0-4.272,2.371-4.272,5.285s0.883,5.285,4.272,5.285h27.545c3.7,0,6.678-1.904,8.767-4.528
				c0.184-0.229,17.916-22.387,23.876-29.961c0.624-0.793,1.456-0.239,1.456-0.239l36.357,16.629c1.366,0.625,3.836,1.36,5.436,1.36
				c3.13,0,4.492-0.941,6.324-3.003l33.727-37.881C372.748,122.969,373.175,121.58,372.958,120.18z"/>
			<g>
				<path d="M82.931,115.597c21.432,0,38.793-17.381,38.793-38.814c0-21.411-17.361-38.794-38.793-38.794
					c-21.436,0-38.815,17.383-38.815,38.794C44.115,98.216,61.494,115.597,82.931,115.597z"/>
				<path d="M253.479,205.625c-0.469-2.801-3.131-4.691-5.922-4.22l-65.003,5.26c-2.086-0.365-2.887-1.998-3.744-2.965
					c-0.423-0.477-0.884-0.932-1.384-1.361c-9.157-7.869-22.905-1.869-27.112-15.27c-9.304-29.634-21.915-62.028-41.579-62.028
					c-0.773,0-45.411,0-51.784,0c-20.423,0-31.972,41.326-42.227,70.638c-3.943,11.176-7.977,22.736-12.821,33.803
					c-3.335,7.636-2.652,16.514,4.983,19.849c1.96,0.849,3.996,1.265,6.013,1.265c5.807,0,9.998-4.461,12.47-10.117
					c3.782-8.675,9.937-27.516,13.976-39.08c0.938-2.688,2.106-4.439,1.875,0.234v39.144c0,1.803,0.417,3.511,1.158,5.037
					c0.461,0.95,1.82,2.446,1.737,4.434v103.08c0,10.343,7.114,18.727,17.045,18.727c9.93,0,16.109-8.384,16.109-18.727v-98.055
					c0,0-0.019-2.83,3.564-2.83c0.321,0,0.965,0,1.286,0c3.622,0,3.604,2.83,3.604,2.83v98.055c0,10.343,6.181,18.727,16.109,18.727
					c9.931,0,17.046-8.384,17.046-18.727v-99.224c0-2.922,2.15-5.005,2.988-6.042c1.612-1.998,2.583-4.532,2.583-7.285v-40.664
					c0-8.992,4.128,11.576,15.357,16.94c8.215,3.923,31.387,8.972,37.386,5.154c1.481-0.943,2.629-2.136,3.462-3.48
					c0.329-0.53,0.982-1.675,2.795-1.842l65.81-5.337C252.06,211.077,253.95,208.426,253.479,205.625z M99.052,194.292
					l-13.787,12.68c-1.29,1.185-3.401,1.185-4.69,0l-13.788-12.68c-1.291-1.186-2.051-3.559-1.692-5.273l7.189-34.332
					c0.108-0.513,0.433-2.066,0.405-2.419c-0.142-1.811-0.565-7.24-0.565-7.24c-0.137-1.747,1.185-3.177,2.937-3.177H90.78
					c1.752,0,3.073,1.43,2.936,3.177c0,0-0.424,5.43-0.565,7.24c-0.027,0.352,0.299,1.906,0.406,2.419l7.189,34.332
					C101.103,190.734,100.343,193.107,99.052,194.292z"/>
			</g>
			<path d="M397.287,101.33c2.809-1.012,4.831-3.704,4.831-6.851V89.59c0-4.008-3.279-7.287-7.287-7.287H200.3
				c-4.008,0-7.287,3.279-7.287,7.287v4.889c0,2.877,1.69,5.373,4.127,6.554c0.813,0.394,2.649,0.702,2.649,2.243
				c0,0,0,62.834,0,83.778c0,1.959,1.667,1.789,1.667,1.789l8.759-0.839c0,0,1.963-0.127,1.963-1.783c0-29.422,0-61.894,0-82.512
				c0-1.307,1.808-1.536,1.808-1.536h166.758c0,0,2.211-0.104,2.211,1.817c0,30.71,0,91.428,0,121.903
				c0,1.058-1.179,0.938-1.179,0.938s-108.532,0-145.36,0c-10.302,0-40.928,4.781-40.928,4.781
				c-2.475,0.202-2.475,2.007-2.475,2.989v4.889c0,4.009,3.279,7.288,7.287,7.288h194.531c4.008,0,7.287-3.279,7.287-7.288v-4.889
				c0-3.507-2.513-6.45-5.827-7.131c-0.31-0.063-0.948-0.034-0.948-1.066V103.558C395.343,101.979,396.672,101.552,397.287,101.33z"
				/>
			<path d="M321.499,61.711c-2.75-0.002-6.727-1.446-8.837-3.21l-11.252-9.403c-2.11-1.764-5.478-1.667-7.484,0.214l-9.435,8.846
				c-2.007,1.881-5.898,3.438-8.647,3.46l-9.17,0.072c-2.75,0.022-3.358-1.499-1.353-3.38l28.59-26.805
				c2.006-1.881,5.332-1.929,7.392-0.106l30.51,27.009c2.06,1.823,1.494,3.313-1.256,3.311L321.499,61.711z"/>
		</g>
	</g>
</g>
<g>
</g>
<g>
</g>
<g>
</g>
<g>
</g>
<g>
</g>
<g>
</g>
<g>
</g>
<g>
</g>
<g>
</g>
<g>
</g>
<g>
</g>
<g>
</g>
<g>
</g>
<g>
</g>
<g>
</g>
</svg>
