<?xml version="1.0" encoding="iso-8859-1"?>
<!-- Generator: Adobe Illustrator 18.0.0, SVG Export Plug-In . SVG Version: 6.00 Build 0)  -->
<!DOCTYPE svg PUBLIC "-//W3C//DTD SVG 1.1//EN" "http://www.w3.org/Graphics/SVG/1.1/DTD/svg11.dtd">
<svg version="1.1" id="Capa_1" xmlns="http://www.w3.org/2000/svg" xmlns:xlink="http://www.w3.org/1999/xlink" x="0px" y="0px"
	 viewBox="0 0 488.477 488.477" style="enable-background:new 0 0 488.477 488.477;" xml:space="preserve">
<g>
	<path d="M472.227,17.875H16.25C7.29,17.875,0,25.166,0,34.125v383.982c0,8.96,7.29,16.25,16.25,16.25h177.048v28.725
		c0,5.155,2.583,6.761,4.124,7.259c1.541,0.497,4.575,0.709,7.594-3.473l38.649-53.547c0.29-0.402,0.526-0.524,0.563-0.536
		c0.059,0.012,0.295,0.134,0.585,0.536l38.65,53.548c2.158,2.987,4.323,3.732,5.945,3.732c0.647,0,1.208-0.119,1.648-0.261
		c1.54-0.498,4.123-2.103,4.123-7.259v-28.725h177.048c8.96,0,16.25-7.29,16.25-16.25V34.125
		C488.477,25.166,481.187,17.875,472.227,17.875z M207.78,354.371c-1.082,0-2.05-0.144-2.959-0.438
		c-5.369-1.744-9.069-8.495-12.987-15.644c-3.437-6.271-6.991-12.755-12.289-16.61c-5.372-3.909-12.697-5.311-19.781-6.667
		c-7.943-1.52-15.445-2.956-18.702-7.431c-3.2-4.398-2.266-11.925-1.277-19.893c0.893-7.201,1.817-14.646-0.26-21.045
		c-1.985-6.115-6.995-11.43-11.839-16.569c-5.395-5.724-10.972-11.642-10.972-17.457c0-5.816,5.578-11.734,10.973-17.458
		c4.844-5.14,9.853-10.454,11.838-16.568c2.077-6.398,1.153-13.844,0.26-21.045c-0.989-7.968-1.922-15.494,1.278-19.892
		c3.256-4.475,10.758-5.911,18.701-7.432c7.084-1.356,14.409-2.758,19.782-6.668c5.296-3.855,8.85-10.339,12.287-16.609
		c3.917-7.147,7.618-13.899,12.988-15.643c0.909-0.295,1.877-0.438,2.959-0.438c4.615,0,10.163,2.597,16.035,5.346
		c6.657,3.116,13.541,6.338,20.422,6.338c6.881,0,13.765-3.222,20.422-6.338c5.874-2.749,11.421-5.346,16.036-5.346
		c1.082,0,2.05,0.144,2.958,0.438c5.37,1.744,9.07,8.495,12.988,15.643c3.437,6.271,6.991,12.755,12.288,16.61
		c5.372,3.909,12.698,5.312,19.782,6.668c7.942,1.52,15.444,2.956,18.701,7.432c3.2,4.397,2.267,11.924,1.278,19.892
		c-0.893,7.2-1.817,14.646,0.26,21.044c1.985,6.114,6.995,11.429,11.839,16.568c5.395,5.724,10.973,11.643,10.973,17.458
		c0,5.817-5.579,11.736-10.974,17.46c-4.843,5.139-9.852,10.453-11.838,16.566c-2.077,6.398-1.153,13.844-0.259,21.044
		c0.989,7.969,1.923,15.496-1.278,19.894c-3.256,4.475-10.758,5.911-18.7,7.431c-7.085,1.356-14.411,2.759-19.783,6.668
		c-5.297,3.855-8.851,10.339-12.288,16.609c-3.918,7.148-7.619,13.899-12.988,15.644c-0.909,0.295-1.877,0.438-2.959,0.438
		c-4.615,0-10.162-2.597-16.035-5.346c-6.657-3.116-13.541-6.338-20.423-6.338c-6.881,0-13.764,3.222-20.421,6.338
		C217.943,351.774,212.395,354.371,207.78,354.371z M295.179,356.022c3.526-3.832,6.252-8.783,8.918-13.648
		c2.988-5.45,6.077-11.087,9.836-13.822c3.836-2.791,10.212-4.012,16.379-5.192c9.214-1.764,18.743-3.587,23.975-10.777
		c5.176-7.113,3.989-16.686,2.84-25.942c-0.779-6.278-1.584-12.772-0.091-17.372c1.396-4.298,5.546-8.7,9.939-13.361
		c6.533-6.931,13.288-14.098,13.288-23.29c0-9.189-6.755-16.356-13.287-23.288c-4.394-4.661-8.544-9.064-9.94-13.363
		c-1.494-4.602-0.688-11.094,0.091-17.372c1.149-9.256,2.336-18.827-2.84-25.94c-5.233-7.191-14.762-9.015-23.976-10.778
		c-6.167-1.181-12.543-2.401-16.378-5.192c-3.76-2.736-6.849-8.372-9.836-13.823c-4.542-8.286-9.239-16.855-17.817-19.641
		c-1.745-0.567-3.623-0.854-5.583-0.854c-6.506,0-13.183,3.125-19.639,6.147c-5.816,2.722-11.829,5.536-16.819,5.536
		s-11.003-2.814-16.818-5.536c-6.457-3.022-13.133-6.147-19.639-6.147c-1.96,0-3.839,0.287-5.584,0.854
		c-8.578,2.784-13.274,11.354-17.817,19.642c-2.987,5.45-6.076,11.086-9.835,13.822c-3.835,2.791-10.212,4.011-16.378,5.191
		c-9.215,1.764-18.743,3.588-23.976,10.778c-5.176,7.113-3.989,16.685-2.84,25.94c0.779,6.279,1.585,12.771,0.09,17.373
		c-1.396,4.299-5.545,8.702-9.939,13.363c-6.532,6.931-13.287,14.098-13.287,23.288c0,9.19,6.754,16.356,13.286,23.287
		c4.394,4.661,8.544,9.064,9.94,13.364c1.494,4.602,0.688,11.094-0.09,17.373c-1.148,9.256-2.336,18.827,2.839,25.94
		c5.233,7.191,14.762,9.015,23.977,10.778c6.167,1.181,12.543,2.4,16.378,5.191c3.759,2.735,6.849,8.372,9.836,13.823
		c2.666,4.864,5.392,9.816,8.917,13.648v37.161H8.5V131.696h82.343c2.347,0,4.25-1.902,4.25-4.25c0-2.348-1.903-4.25-4.25-4.25H8.5
		V84.683h471.477v269.513h-98.134c-2.347,0-4.25,1.902-4.25,4.25c0,2.348,1.903,4.25,4.25,4.25h98.134v30.487H295.179V356.022z
		 M16.25,26.375h455.977c4.273,0,7.75,3.477,7.75,7.75v15.058H170.094c-2.347,0-4.25,1.902-4.25,4.25c0,2.348,1.903,4.25,4.25,4.25
		h309.883v18.5H8.5V34.125C8.5,29.852,11.977,26.375,16.25,26.375z M16.25,425.857c-4.273,0-7.75-3.477-7.75-7.75v-16.424h184.798
		v24.174H16.25z M251.704,408.346c-1.862-2.58-4.583-4.06-7.466-4.06c-2.882,0-5.604,1.48-7.466,4.06l-34.974,48.455v-94.936
		c0.135,0.048,0.262,0.105,0.399,0.15c1.745,0.567,3.624,0.854,5.584,0.854c0.934,0,1.872-0.071,2.812-0.19v34.766
		c0,2.348,1.903,4.25,4.25,4.25s4.25-1.902,4.25-4.25v-37.061c2.795-1.074,5.581-2.376,8.327-3.661
		c5.815-2.722,11.828-5.536,16.818-5.536c4.991,0,11.004,2.815,16.819,5.536c6.457,3.022,13.133,6.147,19.639,6.147
		c1.96,0,3.838-0.287,5.583-0.854c0.137-0.045,0.265-0.104,0.399-0.15v94.936L251.704,408.346z M472.227,425.857H295.179v-24.174
		h184.798v16.424C479.977,422.38,476.5,425.857,472.227,425.857z"/>
	<path d="M38.094,66.683c8.409,0,15.25-6.841,15.25-15.25c0-8.409-6.841-15.25-15.25-15.25s-15.25,6.841-15.25,15.25
		C22.844,59.842,29.685,66.683,38.094,66.683z M38.094,44.683c3.722,0,6.75,3.028,6.75,6.75c0,3.722-3.028,6.75-6.75,6.75
		c-3.722,0-6.75-3.028-6.75-6.75C31.344,47.711,34.372,44.683,38.094,44.683z"/>
	<path d="M80.594,66.683c8.409,0,15.25-6.841,15.25-15.25c0-8.409-6.841-15.25-15.25-15.25s-15.25,6.841-15.25,15.25
		C65.344,59.842,72.185,66.683,80.594,66.683z M80.594,44.683c3.722,0,6.75,3.028,6.75,6.75c0,3.722-3.028,6.75-6.75,6.75
		c-3.722,0-6.75-3.028-6.75-6.75C73.844,47.711,76.872,44.683,80.594,44.683z"/>
	<path d="M123.094,66.683c8.409,0,15.25-6.841,15.25-15.25c0-8.409-6.841-15.25-15.25-15.25s-15.25,6.841-15.25,15.25
		C107.844,59.842,114.685,66.683,123.094,66.683z M123.094,44.683c3.722,0,6.75,3.028,6.75,6.75c0,3.722-3.028,6.75-6.75,6.75
		c-3.722,0-6.75-3.028-6.75-6.75C116.344,47.711,119.372,44.683,123.094,44.683z"/>
	<path d="M337.501,232.617c0-51.425-41.837-93.262-93.263-93.262s-93.263,41.837-93.263,93.262
		c0,51.426,41.837,93.264,93.263,93.264S337.501,284.042,337.501,232.617z M159.476,232.617c0-46.737,38.024-84.762,84.763-84.762
		s84.763,38.024,84.763,84.762c0,46.739-38.024,84.764-84.763,84.764S159.476,279.356,159.476,232.617z"/>
	<path d="M306.714,232.617c0-34.448-28.026-62.475-62.476-62.475s-62.476,28.026-62.476,62.475
		c0,34.448,28.026,62.476,62.476,62.477C278.688,295.093,306.714,267.066,306.714,232.617z M200.149,263.696h33.693
		c2.347,0,4.25-1.902,4.25-4.25c0-2.348-1.903-4.25-4.25-4.25h-38.612c-2.905-6.28-4.637-13.205-4.916-20.5h61.527
		c2.347,0,4.25-1.902,4.25-4.25c0-2.348-1.903-4.25-4.25-4.25h-61.185c3.187-26.744,25.992-47.554,53.581-47.554
		c16.215,0,30.772,7.197,40.675,18.554h-40.07c-2.347,0-4.25,1.902-4.25,4.25c0,2.348,1.903,4.25,4.25,4.25h46.148
		c4.585,7.931,7.223,17.121,7.223,26.921c0,29.763-24.213,53.977-53.976,53.977C226.042,286.592,209.932,277.532,200.149,263.696z"
		/>
</g>
<g>
</g>
<g>
</g>
<g>
</g>
<g>
</g>
<g>
</g>
<g>
</g>
<g>
</g>
<g>
</g>
<g>
</g>
<g>
</g>
<g>
</g>
<g>
</g>
<g>
</g>
<g>
</g>
<g>
</g>
</svg>
